<?xml version="1.0" standalone="yes"?>

<svg version="1.1" viewBox="0.0 0.0 678.0761154855643 452.93438320209975" fill="none" stroke="none" stroke-linecap="square" stroke-miterlimit="10" xmlns="http://www.w3.org/2000/svg" xmlns:xlink="http://www.w3.org/1999/xlink"><clipPath id="p.0"><path d="m0 0l678.0761 0l0 452.9344l-678.0761 0l0 -452.9344z" clip-rule="nonzero"></path></clipPath><g clip-path="url(#p.0)"><path fill="#000000" fill-opacity="0.0" d="m0 0l678.0761 0l0 452.9344l-678.0761 0z" fill-rule="evenodd"></path><path fill="#fff2cc" d="m21.713911 288.15222l211.08661 0l0 131.77954l-211.08661 0z" fill-rule="evenodd"></path><path stroke="#000000" stroke-width="1.0" stroke-linejoin="round" stroke-linecap="butt" d="m21.713911 288.15222l211.08661 0l0 131.77954l-211.08661 0z" fill-rule="evenodd"></path><path fill="#660000" d="m18.501875 288.15222l108.755905 -72.85039l108.755905 72.85039z" fill-rule="evenodd"></path><path stroke="#000000" stroke-width="1.0" stroke-linejoin="round" stroke-linecap="butt" d="m18.501875 288.15222l108.755905 -72.85039l108.755905 72.85039z" fill-rule="evenodd"></path><path fill="#7f6000" d="m110.64304 364.22308l31.086617 0l0 53.57483l-31.086617 0z" fill-rule="evenodd"></path><path stroke="#000000" stroke-width="1.0" stroke-linejoin="round" stroke-linecap="butt" d="m110.64304 364.22308l31.086617 0l0 53.57483l-31.086617 0z" fill-rule="evenodd"></path><path fill="#efefef" d="m33.501312 372.7953l62.14173 0l0 31.086609l-62.14173 0z" fill-rule="evenodd"></path><path stroke="#000000" stroke-width="1.0" stroke-linejoin="round" stroke-linecap="butt" d="m33.501312 372.7953l62.14173 0l0 31.086609l-62.14173 0z" fill-rule="evenodd"></path><path fill="#efefef" d="m156.72966 372.7953l62.141724 0l0 31.086609l-62.141724 0z" fill-rule="evenodd"></path><path stroke="#000000" stroke-width="1.0" stroke-linejoin="round" stroke-linecap="butt" d="m156.72966 372.7953l62.141724 0l0 31.086609l-62.141724 0z" fill-rule="evenodd"></path><path fill="#efefef" d="m33.501312 316.7953l62.14173 0l0 31.086609l-62.14173 0z" fill-rule="evenodd"></path><path stroke="#000000" stroke-width="1.0" stroke-linejoin="round" stroke-linecap="butt" d="m33.501312 316.7953l62.14173 0l0 31.086609l-62.14173 0z" fill-rule="evenodd"></path><path fill="#efefef" d="m156.72966 316.7953l62.141724 0l0 31.086609l-62.141724 0z" fill-rule="evenodd"></path><path stroke="#000000" stroke-width="1.0" stroke-linejoin="round" stroke-linecap="butt" d="m156.72966 316.7953l62.141724 0l0 31.086609l-62.141724 0z" fill-rule="evenodd"></path><path fill="#1155cc" d="m21.713911 424.9688l211.08661 0l0 8.818878l-211.08661 0z" fill-rule="evenodd"></path><path stroke="#ffffff" stroke-width="1.0" stroke-linejoin="round" stroke-linecap="butt" d="m21.713911 424.9688l211.08661 0l0 8.818878l-211.08661 0z" fill-rule="evenodd"></path><path fill="#1155cc" d="m254.68504 424.9688l204.85039 0l0 8.818878l-204.85039 0z" fill-rule="evenodd"></path><path stroke="#ffffff" stroke-width="1.0" stroke-linejoin="round" stroke-linecap="butt" d="m254.68504 424.9688l204.85039 0l0 8.818878l-204.85039 0z" fill-rule="evenodd"></path><path fill="#1155cc" d="m459.53806 424.9688l204.85037 0l0 8.818878l-204.85037 0z" fill-rule="evenodd"></path><path stroke="#ffffff" stroke-width="1.0" stroke-linejoin="round" stroke-linecap="butt" d="m459.53806 424.9688l204.85037 0l0 8.818878l-204.85037 0z" fill-rule="evenodd"></path><path fill="#fff2cc" d="m254.68558 164.18332l409.66928 0l0 255.74805l-409.66928 0z" fill-rule="evenodd"></path><path stroke="#000000" stroke-width="1.0" stroke-linejoin="round" stroke-linecap="butt" d="m254.68558 164.18332l409.66928 0l0 255.74805l-409.66928 0z" fill-rule="evenodd"></path><path fill="#660000" d="m248.45152 164.17834l211.08662 -141.38582l211.08661 141.38582z" fill-rule="evenodd"></path><path stroke="#000000" stroke-width="1.0" stroke-linejoin="round" stroke-linecap="butt" d="m248.45152 164.17834l211.08662 -141.38582l211.08661 141.38582z" fill-rule="evenodd"></path><path fill="#7f6000" d="m427.2827 311.82452l60.346436 0l0 103.968506l-60.346436 0z" fill-rule="evenodd"></path><path stroke="#000000" stroke-width="1.0" stroke-linejoin="round" stroke-linecap="butt" d="m427.2827 311.82452l60.346436 0l0 103.968506l-60.346436 0z" fill-rule="evenodd"></path><path fill="#efefef" d="m277.56302 328.46173l120.59842 0l0 60.346466l-120.59842 0z" fill-rule="evenodd"></path><path stroke="#000000" stroke-width="1.0" stroke-linejoin="round" stroke-linecap="butt" d="m277.56302 328.46173l120.59842 0l0 60.346466l-120.59842 0z" fill-rule="evenodd"></path><path fill="#efefef" d="m516.72943 328.46173l120.59839 0l0 60.346466l-120.59839 0z" fill-rule="evenodd"></path><path stroke="#000000" stroke-width="1.0" stroke-linejoin="round" stroke-linecap="butt" d="m516.72943 328.46173l120.59839 0l0 60.346466l-120.59839 0z" fill-rule="evenodd"></path><path fill="#efefef" d="m277.56302 219.77483l120.59842 0l0 60.34645l-120.59842 0z" fill-rule="evenodd"></path><path stroke="#000000" stroke-width="1.0" stroke-linejoin="round" stroke-linecap="butt" d="m277.56302 219.77483l120.59842 0l0 60.34645l-120.59842 0z" fill-rule="evenodd"></path><path fill="#efefef" d="m516.72943 219.77483l120.59839 0l0 60.34645l-120.59839 0z" fill-rule="evenodd"></path><path stroke="#000000" stroke-width="1.0" stroke-linejoin="round" stroke-linecap="butt" d="m516.72943 219.77483l120.59839 0l0 60.34645l-120.59839 0z" fill-rule="evenodd"></path><path fill="#38761d" d="m10.149306 288.15222l6.645669 0l0 131.77954l-6.645669 0z" fill-rule="evenodd"></path><path stroke="#ffffff" stroke-width="1.0" stroke-linejoin="round" stroke-linecap="butt" d="m10.149306 288.15222l6.645669 0l0 131.77954l-6.645669 0z" fill-rule="evenodd"></path><path fill="#38761d" d="m244.89502 291.86877l6.6456604 0l0 128.06299l-6.6456604 0z" fill-rule="evenodd"></path><path stroke="#ffffff" stroke-width="1.0" stroke-linejoin="round" stroke-linecap="butt" d="m244.89502 291.86877l6.6456604 0l0 128.06299l-6.6456604 0z" fill-rule="evenodd"></path><path fill="#38761d" d="m244.89502 164.18373l6.6456604 0l0 128.06297l-6.6456604 0z" fill-rule="evenodd"></path><path stroke="#ffffff" stroke-width="1.0" stroke-linejoin="round" stroke-linecap="butt" d="m244.89502 164.18373l6.6456604 0l0 128.06297l-6.6456604 0z" fill-rule="evenodd"></path><path fill="#ffff00" d="m13.603525 280.21725l108.50394 -71.779526l3.1181107 4.724411l-108.50394 71.77951z" fill-rule="evenodd"></path><path stroke="#000000" stroke-width="1.0" stroke-linejoin="round" stroke-linecap="butt" d="m13.603525 280.21725l108.50394 -71.779526l3.1181107 4.724411l-108.50394 71.77951z" fill-rule="evenodd"></path><path fill="#ffff00" d="m241.92651 154.42253l105.88977 -70.04724l3.118103 4.7244034l-105.88977 70.04725z" fill-rule="evenodd"></path><path stroke="#000000" stroke-width="1.0" stroke-linejoin="round" stroke-linecap="butt" d="m241.92651 154.42253l105.88977 -70.04724l3.118103 4.7244034l-105.88977 70.04725z" fill-rule="evenodd"></path><path fill="#ffff00" d="m347.42258 84.60899l106.04724 -70.14173l3.118103 4.72441l-106.04724 70.14173z" fill-rule="evenodd"></path><path stroke="#000000" stroke-width="1.0" stroke-linejoin="round" stroke-linecap="butt" d="m347.42258 84.60899l106.04724 -70.14173l3.118103 4.72441l-106.04724 70.14173z" fill-rule="evenodd"></path><path fill="#f1c232" d="m110.64304 356.11548l31.086617 0l0 5.0393677l-31.086617 0z" fill-rule="evenodd"></path><path stroke="#000000" stroke-width="1.0" stroke-linejoin="round" stroke-linecap="butt" d="m110.64304 356.11548l31.086617 0l0 5.0393677l-31.086617 0z" fill-rule="evenodd"></path><path fill="#f1c232" d="m427.28348 304.1496l31.086609 0l0 5.0393677l-31.086609 0z" fill-rule="evenodd"></path><path stroke="#000000" stroke-width="1.0" stroke-linejoin="round" stroke-linecap="butt" d="m427.28348 304.1496l31.086609 0l0 5.0393677l-31.086609 0z" fill-rule="evenodd"></path><path fill="#f1c232" d="m456.58792 304.1496l31.086609 0l0 5.0393677l-31.086609 0z" fill-rule="evenodd"></path><path stroke="#000000" stroke-width="1.0" stroke-linejoin="round" stroke-linecap="butt" d="m456.58792 304.1496l31.086609 0l0 5.0393677l-31.086609 0z" fill-rule="evenodd"></path><path fill="#9900ff" d="m33.501312 350.30704l62.14173 0l0 5.0393677l-62.14173 0z" fill-rule="evenodd"></path><path stroke="#000000" stroke-width="1.0" stroke-linejoin="round" stroke-linecap="butt" d="m33.501312 350.30704l62.14173 0l0 5.0393677l-62.14173 0z" fill-rule="evenodd"></path><path fill="#9900ff" d="m277.5643 283.1128l62.141724 0l0 5.0393677l-62.141724 0z" fill-rule="evenodd"></path><path stroke="#000000" stroke-width="1.0" stroke-linejoin="round" stroke-linecap="butt" d="m277.5643 283.1128l62.141724 0l0 5.0393677l-62.141724 0z" fill-rule="evenodd"></path><path fill="#9900ff" d="m336.021 283.1128l62.141724 0l0 5.0393677l-62.141724 0z" fill-rule="evenodd"></path><path stroke="#000000" stroke-width="1.0" stroke-linejoin="round" stroke-linecap="butt" d="m336.021 283.1128l62.141724 0l0 5.0393677l-62.141724 0z" fill-rule="evenodd"></path><path fill="#cfe2f3" d="m33.512077 317.52554c5.511406 -1.161499 10.740616 0.84088135 13.547901 5.1877747c2.8072853 4.346863 2.721569 10.308807 -0.22208023 15.446289c-2.9436493 5.137451 -8.2512665 8.588318 -13.751038 8.940582z" fill-rule="evenodd"></path><path stroke="#000000" stroke-width="1.0" stroke-linejoin="round" stroke-linecap="butt" d="m33.512077 317.52554c5.511406 -1.161499 10.740616 0.84088135 13.547901 5.1877747c2.8072853 4.346863 2.721569 10.308807 -0.22208023 15.446289c-2.9436493 5.137451 -8.2512665 8.588318 -13.751038 8.940582z" fill-rule="evenodd"></path><path fill="#cfe2f3" d="m33.512077 374.41528c5.511406 -1.1614685 10.740616 0.84091187 13.547901 5.187805c2.8072853 4.346863 2.721569 10.308807 -0.22208023 15.446289c-2.9436493 5.137451 -8.2512665 8.588318 -13.751038 8.940552z" fill-rule="evenodd"></path><path stroke="#000000" stroke-width="1.0" stroke-linejoin="round" stroke-linecap="butt" d="m33.512077 374.41528c5.511406 -1.1614685 10.740616 0.84091187 13.547901 5.187805c2.8072853 4.346863 2.721569 10.308807 -0.22208023 15.446289c-2.9436493 5.137451 -8.2512665 8.588318 -13.751038 8.940552z" fill-rule="evenodd"></path><path fill="#cfe2f3" d="m156.97401 317.43106c5.5114136 -1.161499 10.740616 0.84088135 13.547913 5.1877747c2.8072815 4.346863 2.7215576 10.308807 -0.22209167 15.446289c-2.9436493 5.137451 -8.2512665 8.588318 -13.751038 8.940552z" fill-rule="evenodd"></path><path stroke="#000000" stroke-width="1.0" stroke-linejoin="round" stroke-linecap="butt" d="m156.97401 317.43106c5.5114136 -1.161499 10.740616 0.84088135 13.547913 5.1877747c2.8072815 4.346863 2.7215576 10.308807 -0.22209167 15.446289c-2.9436493 5.137451 -8.2512665 8.588318 -13.751038 8.940552z" fill-rule="evenodd"></path><path fill="#cfe2f3" d="m156.97401 374.36804c5.5114136 -1.1614685 10.740616 0.84091187 13.547913 5.187805c2.8072815 4.346863 2.7215576 10.308807 -0.22209167 15.446259c-2.9436493 5.1374817 -8.2512665 8.588348 -13.751038 8.940582z" fill-rule="evenodd"></path><path stroke="#000000" stroke-width="1.0" stroke-linejoin="round" stroke-linecap="butt" d="m156.97401 374.36804c5.5114136 -1.1614685 10.740616 0.84091187 13.547913 5.187805c2.8072815 4.346863 2.7215576 10.308807 -0.22209167 15.446259c-2.9436493 5.1374817 -8.2512665 8.588348 -13.751038 8.940582z" fill-rule="evenodd"></path><path fill="#cfe2f3" d="m94.65294 317.43106c-5.511406 -1.161499 -10.740616 0.84088135 -13.547897 5.1877747c-2.8072891 4.346863 -2.7215652 10.308807 0.22208405 15.446289c2.9436417 5.137451 8.251259 8.588318 13.75103 8.940552z" fill-rule="evenodd"></path><path stroke="#000000" stroke-width="1.0" stroke-linejoin="round" stroke-linecap="butt" d="m94.65294 317.43106c-5.511406 -1.161499 -10.740616 0.84088135 -13.547897 5.1877747c-2.8072891 4.346863 -2.7215652 10.308807 0.22208405 15.446289c2.9436417 5.137451 8.251259 8.588318 13.75103 8.940552z" fill-rule="evenodd"></path><path fill="#cfe2f3" d="m94.65294 374.36804c-5.511406 -1.1614685 -10.740616 0.84091187 -13.547897 5.187805c-2.8072891 4.346863 -2.7215652 10.308807 0.22208405 15.446259c2.9436417 5.1374817 8.251259 8.588348 13.75103 8.940582z" fill-rule="evenodd"></path><path stroke="#000000" stroke-width="1.0" stroke-linejoin="round" stroke-linecap="butt" d="m94.65294 374.36804c-5.511406 -1.1614685 -10.740616 0.84091187 -13.547897 5.187805c-2.8072891 4.346863 -2.7215652 10.308807 0.22208405 15.446259c2.9436417 5.1374817 8.251259 8.588348 13.75103 8.940582z" fill-rule="evenodd"></path><path fill="#cfe2f3" d="m217.53746 317.69876c-5.5114136 -1.1614685 -10.740616 0.84091187 -13.547913 5.1877747c-2.8072815 4.3468933 -2.7215576 10.308838 0.22209167 15.446289c2.9436493 5.137451 8.2512665 8.588348 13.751038 8.940582z" fill-rule="evenodd"></path><path stroke="#000000" stroke-width="1.0" stroke-linejoin="round" stroke-linecap="butt" d="m217.53746 317.69876c-5.5114136 -1.1614685 -10.740616 0.84091187 -13.547913 5.1877747c-2.8072815 4.3468933 -2.7215576 10.308838 0.22209167 15.446289c2.9436493 5.137451 8.2512665 8.588348 13.751038 8.940582z" fill-rule="evenodd"></path><path fill="#cfe2f3" d="m217.53746 374.50192c-5.5114136 -1.161499 -10.740616 0.84088135 -13.547913 5.1877747c-2.8072815 4.346863 -2.7215576 10.308807 0.22209167 15.446289c2.9436493 5.137451 8.2512665 8.588318 13.751038 8.940552z" fill-rule="evenodd"></path><path stroke="#000000" stroke-width="1.0" stroke-linejoin="round" stroke-linecap="butt" d="m217.53746 374.50192c-5.5114136 -1.161499 -10.740616 0.84088135 -13.547913 5.1877747c-2.8072815 4.346863 -2.7215576 10.308807 0.22209167 15.446289c2.9436493 5.137451 8.2512665 8.588318 13.751038 8.940552z" fill-rule="evenodd"></path><path fill="#cfe2f3" d="m397.48874 329.81183l0 0c-10.870514 -2.4716492 -21.184143 1.301178 -26.720764 9.774689c-5.5365906 8.473511 -5.367096 20.22586 0.43914795 30.448181c5.8062134 10.222351 16.274872 17.19934 27.122406 18.076172z" fill-rule="evenodd"></path><path stroke="#000000" stroke-width="1.0" stroke-linejoin="round" stroke-linecap="butt" d="m397.48874 329.81183l0 0c-10.870514 -2.4716492 -21.184143 1.301178 -26.720764 9.774689c-5.5365906 8.473511 -5.367096 20.22586 0.43914795 30.448181c5.8062134 10.222351 16.274872 17.19934 27.122406 18.076172z" fill-rule="evenodd"></path><path fill="#cfe2f3" d="m397.48874 221.12416l0 0c-10.870514 -2.471634 -21.184143 1.301178 -26.720764 9.774689c-5.5365906 8.473511 -5.367096 20.22586 0.43914795 30.448196c5.8062134 10.222321 16.274872 17.19934 27.122406 18.076172z" fill-rule="evenodd"></path><path stroke="#000000" stroke-width="1.0" stroke-linejoin="round" stroke-linecap="butt" d="m397.48874 221.12416l0 0c-10.870514 -2.471634 -21.184143 1.301178 -26.720764 9.774689c-5.5365906 8.473511 -5.367096 20.22586 0.43914795 30.448196c5.8062134 10.222321 16.274872 17.19934 27.122406 18.076172z" fill-rule="evenodd"></path><path fill="#cfe2f3" d="m636.0924 221.01656l0 0c-10.870544 -2.4716492 -21.184143 1.3011627 -26.720764 9.774689c-5.53656 8.473511 -5.3670654 20.225845 0.43914795 30.448196c5.8062134 10.222321 16.274902 17.19934 27.122437 18.076172z" fill-rule="evenodd"></path><path stroke="#000000" stroke-width="1.0" stroke-linejoin="round" stroke-linecap="butt" d="m636.0924 221.01656l0 0c-10.870544 -2.4716492 -21.184143 1.3011627 -26.720764 9.774689c-5.53656 8.473511 -5.3670654 20.225845 0.43914795 30.448196c5.8062134 10.222321 16.274902 17.19934 27.122437 18.076172z" fill-rule="evenodd"></path><path fill="#cfe2f3" d="m636.0924 329.28165l0 0c-10.870544 -2.4716492 -21.184143 1.301178 -26.720764 9.774689c-5.53656 8.473511 -5.3670654 20.22586 0.43914795 30.448181c5.8062134 10.222351 16.274902 17.19934 27.122437 18.076172z" fill-rule="evenodd"></path><path stroke="#000000" stroke-width="1.0" stroke-linejoin="round" stroke-linecap="butt" d="m636.0924 329.28165l0 0c-10.870544 -2.4716492 -21.184143 1.301178 -26.720764 9.774689c-5.53656 8.473511 -5.3670654 20.22586 0.43914795 30.448181c5.8062134 10.222351 16.274902 17.19934 27.122437 18.076172z" fill-rule="evenodd"></path><path fill="#cfe2f3" d="m278.75632 222.07692l0 0c10.870544 -2.4716492 21.184174 1.301178 26.720764 9.774689c5.5365906 8.473511 5.367096 20.22586 -0.43911743 30.448196c-5.806244 10.222321 -16.274902 17.19934 -27.122437 18.076172z" fill-rule="evenodd"></path><path stroke="#000000" stroke-width="1.0" stroke-linejoin="round" stroke-linecap="butt" d="m278.75632 222.07692l0 0c10.870544 -2.4716492 21.184174 1.301178 26.720764 9.774689c5.5365906 8.473511 5.367096 20.22586 -0.43911743 30.448196c-5.806244 10.222321 -16.274902 17.19934 -27.122437 18.076172z" fill-rule="evenodd"></path><path fill="#cfe2f3" d="m278.82193 329.81183l0 0c10.870544 -2.4716492 21.184174 1.301178 26.720764 9.774689c5.5365906 8.473511 5.367096 20.22586 -0.43911743 30.448181c-5.806244 10.222351 -16.274902 17.19934 -27.122437 18.076172z" fill-rule="evenodd"></path><path stroke="#000000" stroke-width="1.0" stroke-linejoin="round" stroke-linecap="butt" d="m278.82193 329.81183l0 0c10.870544 -2.4716492 21.184174 1.301178 26.720764 9.774689c5.5365906 8.473511 5.367096 20.22586 -0.43911743 30.448181c-5.806244 10.222351 -16.274902 17.19934 -27.122437 18.076172z" fill-rule="evenodd"></path><path fill="#cfe2f3" d="m516.62244 329.81183l0 0c10.870544 -2.4716492 21.184204 1.301178 26.720764 9.774689c5.536621 8.473511 5.3671265 20.22586 -0.4390869 30.448181c-5.8062744 10.222351 -16.274902 17.19934 -27.122437 18.076172z" fill-rule="evenodd"></path><path stroke="#000000" stroke-width="1.0" stroke-linejoin="round" stroke-linecap="butt" d="m516.62244 329.81183l0 0c10.870544 -2.4716492 21.184204 1.301178 26.720764 9.774689c5.536621 8.473511 5.3671265 20.22586 -0.4390869 30.448181c-5.8062744 10.222351 -16.274902 17.19934 -27.122437 18.076172z" fill-rule="evenodd"></path><path fill="#cfe2f3" d="m516.62244 221.01656l0 0c10.870544 -2.4716492 21.184204 1.3011627 26.720764 9.774689c5.536621 8.473511 5.3671265 20.225845 -0.4390869 30.448196c-5.8062744 10.222321 -16.274902 17.19934 -27.122437 18.076172z" fill-rule="evenodd"></path><path stroke="#000000" stroke-width="1.0" stroke-linejoin="round" stroke-linecap="butt" d="m516.62244 221.01656l0 0c10.870544 -2.4716492 21.184204 1.3011627 26.720764 9.774689c5.536621 8.473511 5.3671265 20.225845 -0.4390869 30.448196c-5.8062744 10.222321 -16.274902 17.19934 -27.122437 18.076172z" fill-rule="evenodd"></path><path fill="#000000" fill-opacity="0.0" d="m157.24934 315.81366c0.3648224 0.010040283 1.4908142 0.06036377 2.18898 0.06036377c0.6981659 0 1.3438263 -0.07086182 2.0 -0.06036377c0.65615845 0.010498047 1.1872253 -0.0013122559 1.9370117 0.12335205c0.7497711 0.12466431 1.8219452 0.2913208 2.561676 0.6246643c0.7397156 0.3333435 1.2099762 0.8543396 1.8766327 1.3753357c0.66667175 0.5209961 1.5192566 1.1566162 2.1233673 1.7506409c0.6041107 0.5940552 1.0428619 1.1260071 1.5013123 1.8136597c0.45843506 0.6876526 0.91600037 1.562561 1.2493439 2.3123474c0.33332825 0.74975586 0.5629883 1.4050598 0.7506561 2.1863403c0.18766785 0.7812805 0.2922058 1.6784668 0.37532043 2.5013123c0.083114624 0.82284546 0.17541504 1.5923157 0.12336731 2.4356995c-0.05206299 0.8433838 -0.19641113 1.6872253 -0.43569946 2.6246643c-0.23928833 0.93743896 -0.6041107 2.041565 -1.0 3.0c-0.39588928 0.95843506 -0.83332825 1.8547668 -1.3753204 2.7506714c-0.54200745 0.895874 -1.1994781 1.8538818 -1.876648 2.6246643c-0.6771698 0.7707825 -1.3219604 1.3228455 -2.1863556 2.0c-0.86439514 0.67715454 -2.0415497 1.5004272 -3.0 2.0629883c-0.95843506 0.56256104 -1.8547668 1.0 -2.7506561 1.3123474c-0.8958893 0.3123169 -1.8643951 0.43655396 -2.6246643 0.561676c-0.7602844 0.12509155 -1.6141815 0.1574707 -1.9370117 0.18896484" fill-rule="evenodd"></path><path stroke="#ff00ff" stroke-width="1.0" stroke-linejoin="round" stroke-linecap="butt" d="m157.24934 315.81366c0.3648224 0.010040283 1.4908142 0.06036377 2.18898 0.06036377c0.6981659 0 1.3438263 -0.07086182 2.0 -0.06036377c0.65615845 0.010498047 1.1872253 -0.0013122559 1.9370117 0.12335205c0.7497711 0.12466431 1.8219452 0.2913208 2.561676 0.6246643c0.7397156 0.3333435 1.2099762 0.8543396 1.8766327 1.3753357c0.66667175 0.5209961 1.5192566 1.1566162 2.1233673 1.7506409c0.6041107 0.5940552 1.0428619 1.1260071 1.5013123 1.8136597c0.45843506 0.6876526 0.91600037 1.562561 1.2493439 2.3123474c0.33332825 0.74975586 0.5629883 1.4050598 0.7506561 2.1863403c0.18766785 0.7812805 0.2922058 1.6784668 0.37532043 2.5013123c0.083114624 0.82284546 0.17541504 1.5923157 0.12336731 2.4356995c-0.05206299 0.8433838 -0.19641113 1.6872253 -0.43569946 2.6246643c-0.23928833 0.93743896 -0.6041107 2.041565 -1.0 3.0c-0.39588928 0.95843506 -0.83332825 1.8547668 -1.3753204 2.7506714c-0.54200745 0.895874 -1.1994781 1.8538818 -1.876648 2.6246643c-0.6771698 0.7707825 -1.3219604 1.3228455 -2.1863556 2.0c-0.86439514 0.67715454 -2.0415497 1.5004272 -3.0 2.0629883c-0.95843506 0.56256104 -1.8547668 1.0 -2.7506561 1.3123474c-0.8958893 0.3123169 -1.8643951 0.43655396 -2.6246643 0.561676c-0.7602844 0.12509155 -1.6141815 0.1574707 -1.9370117 0.18896484" fill-rule="evenodd"></path><path fill="#000000" fill-opacity="0.0" d="m279.2756 219.7721c0.8184509 -0.023620605 2.9693604 -0.1885376 4.910736 -0.14173889c1.9414062 0.046813965 4.6325684 0.071746826 6.737549 0.4225769c2.1049805 0.35083008 4.138214 0.9807434 5.892395 1.6824188c1.7541504 0.70166016 3.2991943 1.5918579 4.632538 2.5275574c1.3333435 0.9356842 2.3385925 2.0109253 3.3674622 3.086609c1.0288696 1.0756836 1.9404907 2.0109406 2.8057556 3.3674622c0.8652649 1.3565063 1.7773438 3.1342926 2.3858337 4.771652c0.60849 1.6373596 0.9606323 3.5087433 1.2651062 5.05249c0.30444336 1.543747 0.4680481 3.508316 0.561676 4.209976" fill-rule="evenodd"></path><path stroke="#ff00ff" stroke-width="1.0" stroke-linejoin="round" stroke-linecap="butt" d="m279.2756 219.7721c0.8184509 -0.023620605 2.9693604 -0.1885376 4.910736 -0.14173889c1.9414062 0.046813965 4.6325684 0.071746826 6.737549 0.4225769c2.1049805 0.35083008 4.138214 0.9807434 5.892395 1.6824188c1.7541504 0.70166016 3.2991943 1.5918579 4.632538 2.5275574c1.3333435 0.9356842 2.3385925 2.0109253 3.3674622 3.086609c1.0288696 1.0756836 1.9404907 2.0109406 2.8057556 3.3674622c0.8652649 1.3565063 1.7773438 3.1342926 2.3858337 4.771652c0.60849 1.6373596 0.9606323 3.5087433 1.2651062 5.05249c0.30444336 1.543747 0.4680481 3.508316 0.561676 4.209976" fill-rule="evenodd"></path><path fill="#000000" fill-opacity="0.0" d="m312.11285 246.15486c0 0.44444275 0.093170166 1.7309723 0 2.6666565c-0.093170166 0.93569946 -0.32543945 1.9886322 -0.5590515 2.9475098c-0.23358154 0.95887756 -0.63165283 1.940506 -0.8425293 2.8057709c-0.21084595 0.8652649 -0.14172363 1.5205688 -0.4225464 2.3858337c-0.28085327 0.8652649 -0.79486084 1.8700867 -1.2624817 2.8057861c-0.46762085 0.93566895 -1.0988464 1.989502 -1.5433044 2.8083801c-0.444458 0.8189087 -0.5621033 1.1929321 -1.123352 2.1049805c-0.5612488 0.91207886 -1.4256287 2.314972 -2.24411 3.3674622c-0.8184509 1.0524902 -1.8009644 2.0818176 -2.6666565 2.9475098c-0.86572266 0.86569214 -1.7086792 1.4750671 -2.5275574 2.246704c-0.8189087 0.7716675 -1.2865295 1.6347351 -2.3858337 2.3832092c-1.0993042 0.7484741 -2.9707031 1.5227661 -4.209961 2.107605c-1.2392883 0.5848694 -2.196869 0.95758057 -3.2257385 1.4015808c-1.0288696 0.44400024 -1.777771 0.8180237 -2.9475098 1.2624817c-1.1697083 0.4444275 -2.8311462 1.1465454 -4.070862 1.4042053c-1.2397156 0.2576294 -2.8062134 0.11810303 -3.3674622 0.14172363" fill-rule="evenodd"></path><path stroke="#ff00ff" stroke-width="1.0" stroke-linejoin="round" stroke-linecap="butt" d="m312.11285 246.15486c0 0.44444275 0.093170166 1.7309723 0 2.6666565c-0.093170166 0.93569946 -0.32543945 1.9886322 -0.5590515 2.9475098c-0.23358154 0.95887756 -0.63165283 1.940506 -0.8425293 2.8057709c-0.21084595 0.8652649 -0.14172363 1.5205688 -0.4225464 2.3858337c-0.28085327 0.8652649 -0.79486084 1.8700867 -1.2624817 2.8057861c-0.46762085 0.93566895 -1.0988464 1.989502 -1.5433044 2.8083801c-0.444458 0.8189087 -0.5621033 1.1929321 -1.123352 2.1049805c-0.5612488 0.91207886 -1.4256287 2.314972 -2.24411 3.3674622c-0.8184509 1.0524902 -1.8009644 2.0818176 -2.6666565 2.9475098c-0.86572266 0.86569214 -1.7086792 1.4750671 -2.5275574 2.246704c-0.8189087 0.7716675 -1.2865295 1.6347351 -2.3858337 2.3832092c-1.0993042 0.7484741 -2.9707031 1.5227661 -4.209961 2.107605c-1.2392883 0.5848694 -2.196869 0.95758057 -3.2257385 1.4015808c-1.0288696 0.44400024 -1.777771 0.8180237 -2.9475098 1.2624817c-1.1697083 0.4444275 -2.8311462 1.1465454 -4.070862 1.4042053c-1.2397156 0.2576294 -2.8062134 0.11810303 -3.3674622 0.14172363" fill-rule="evenodd"></path></g></svg>

